<svg width="226" height="49" viewBox="0 0 226 49" fill="none" xmlns="http://www.w3.org/2000/svg">
<path d="M142.5 48C155.479 48 166 37.4787 166 24.5C166 11.5213 155.479 1 142.5 1C129.521 1 119 11.5213 119 24.5C119 37.4787 129.521 48 142.5 48Z" stroke="#323232" stroke-width="2"/>
<path d="M150 26.6C149.6 18.9 142.9 11.6 142.6 11.2L142.4 11.1H141.9L141.7 11L141.6 11.1H141.5C141.1 11.5 134.4 18.9 134 26.6V27.6C134.026 29.9374 134.797 32.2055 136.199 34.0755C137.602 35.9455 139.564 37.3201 141.8 38H142.2C142.2 38 149.7 36 150 27.6V26.8V26.6ZM136 23.8C137.542 25.1755 139.299 26.2901 141.2 27.1V30.7C139.3 29.7 136.4 28 135.6 26.5C135.6 25.5 135.8 24.7 136 23.8V23.8ZM137.6 19.7C138.6 20.7 139.9 21.6 141.2 22.1V25.3C139.5 24.5 137.9 23.4 136.6 22.1L137.6 19.7ZM147.4 22.1C146.1 23.4 144.5 24.5 142.8 25.3V22.1C144.169 21.5875 145.401 20.7663 146.4 19.7L147.4 22V22.1ZM142.8 20.4V14C143.8 15.3 144.8 16.7 145.6 18.1C144.885 19.0991 143.919 19.8924 142.8 20.4ZM142.8 30.8V27C144.701 26.1901 146.458 25.0755 148 23.7L148.5 26.4C147.6 27.9 144.7 29.7 142.8 30.6V30.8ZM141.2 20.4C140.081 19.8924 139.115 19.0991 138.4 18.1C139.2 16.7 140.2 15.3 141.2 13.9V20.4ZM135.7 29.1C137.385 30.4578 139.232 31.5999 141.2 32.5V36.1C139.782 35.4874 138.543 34.5238 137.6 33.3C136.635 32.0751 135.983 30.6335 135.7 29.1V29.1ZM142.7 36.1V32.5C144.7 31.6 146.6 30.5 148.3 29.1C148 30.6 147.3 32.1 146.4 33.3C145.46 34.5269 144.22 35.4912 142.8 36.1H142.7Z" fill="#323232"/>
<path d="M83.5 48C96.4787 48 107 37.4787 107 24.5C107 11.5213 96.4787 1 83.5 1C70.5213 1 60 11.5213 60 24.5C60 37.4787 70.5213 48 83.5 48Z" stroke="#323232" stroke-width="2"/>
<path d="M91.0609 19.7142C91.6041 18.6066 91.9147 17.3995 91.9737 16.1672C92.0327 14.935 91.8388 13.7037 91.4039 12.5492C91.3574 12.4072 91.2697 12.2822 91.1519 12.1902C91.032 12.0961 90.8876 12.0384 90.7358 12.024C90.5841 12.0097 90.4314 12.0392 90.2959 12.1092C90.1618 12.1771 90.0506 12.2828 89.9759 12.4132C88.9849 14.1272 86.8539 16.8902 85.2929 17.0192H85.2229C84.5049 16.8825 83.7767 16.8066 83.0459 16.7922C82.3119 16.8062 81.5809 16.8822 80.8609 17.0192H80.8059C79.2459 16.8982 77.0829 14.1352 76.0849 12.4212C76.014 12.2831 75.9028 12.1697 75.7659 12.0962C75.6277 12.0216 75.4707 11.9893 75.3142 12.0031C75.1578 12.017 75.0089 12.0765 74.8859 12.1742C74.7652 12.2703 74.6768 12.4012 74.6329 12.5492C74.1907 13.6994 73.9895 14.9282 74.0418 16.1593C74.0941 17.3904 74.3988 18.5977 74.9369 19.7062C73.5789 19.8732 71.8549 20.2962 71.2299 21.3602C71.0795 21.6109 71 21.8978 71 22.1902C71 22.4826 71.0795 22.7695 71.2299 23.0202C71.4089 23.3302 71.6749 23.5822 71.9969 23.7502C72.3189 23.9162 72.6839 23.9912 73.0489 23.9652C73.6943 23.9524 74.3328 23.8296 74.9369 23.6022C74.9319 24.0102 74.9659 24.4162 75.0389 24.8182C75.3878 26.1614 75.8442 27.4743 76.4039 28.7442C76.5529 29.0982 76.7169 29.4992 76.8019 29.7402C76.5462 30.3453 76.3454 30.9722 76.2019 31.6132C76.1649 32.0652 76.2219 32.5192 76.3729 32.9492C76.5229 33.3792 76.7629 33.7742 77.0759 34.1112C78.2069 35.3652 80.1969 35.9992 83.0219 35.9992C85.8479 35.9992 87.8449 35.3652 88.9689 34.1112C89.2839 33.7752 89.5239 33.3802 89.6739 32.9502C89.8239 32.5202 89.8819 32.0652 89.8439 31.6132C89.7019 30.9732 89.5039 30.3462 89.2499 29.7402C89.3359 29.4992 89.4999 29.1062 89.6399 28.7442C90.2058 27.4767 90.6628 26.1633 91.0059 24.8182C91.0849 24.4182 91.1219 24.0102 91.1159 23.6022C91.6979 23.8222 92.3159 23.9452 92.9419 23.9652C93.3064 23.9914 93.6711 23.9166 93.9959 23.7492C94.3189 23.5822 94.5869 23.3292 94.7679 23.0212C94.9186 22.7704 94.9982 22.4833 94.9982 22.1907C94.9982 21.8981 94.9186 21.6111 94.7679 21.3602C94.1509 20.3332 92.4269 19.8802 91.0609 19.7142V19.7142ZM90.3189 14.7012C90.6001 16.2828 90.3245 17.913 89.5389 19.3142C89.3431 19.084 89.1347 18.8647 88.9149 18.6572C88.4713 18.2635 87.968 17.9425 87.4239 17.7062C88.5443 16.8668 89.5218 15.8521 90.3189 14.7012V14.7012ZM75.7179 14.7012C76.5072 15.8602 77.4827 16.8806 78.6049 17.7212C78.0621 17.9509 77.5631 18.2726 77.1299 18.6722C76.9069 18.879 76.6959 19.0984 76.4979 19.3292C75.71 17.9234 75.4344 16.2877 75.7179 14.7012V14.7012ZM72.6429 22.2962C72.5729 22.1762 72.5959 22.1382 72.6429 22.1072C72.8229 21.8132 73.7279 21.3522 75.4599 21.1792C75.3739 21.3976 75.2958 21.6191 75.2259 21.8432C74.2119 22.3492 72.8529 22.6662 72.6429 22.2962V22.2962ZM89.4689 24.5612C89.1412 25.8023 88.7183 27.0162 88.2039 28.1922C88.0009 28.6542 87.8209 29.1252 87.6659 29.6042L87.6189 29.8382L87.7049 30.0502C87.9519 30.6252 88.1529 31.2192 88.3049 31.8242C88.3149 32.0622 88.2729 32.2992 88.1859 32.5222C88.0984 32.7461 87.9668 32.9501 87.7989 33.1222C87.2369 33.7492 85.9569 34.4892 83.0299 34.4892C80.1039 34.4892 78.8239 33.7342 78.2619 33.1222C78.0961 32.9499 77.966 32.7465 77.879 32.5238C77.792 32.301 77.7498 32.0633 77.7549 31.8242C77.9109 31.2192 78.1149 30.6252 78.3629 30.0502L78.4489 29.8382L78.3939 29.6042C78.2474 29.1202 78.0704 28.6459 77.8639 28.1842C77.3409 27.0025 76.9129 25.781 76.5839 24.5312C76.4349 23.6605 76.5078 22.7663 76.7959 21.9312C77.0877 21.0896 77.5831 20.3331 78.2379 19.7292C79.4169 18.5822 82.0859 18.3252 83.0149 18.3172C83.9429 18.3102 86.5579 18.5742 87.8059 19.7442C88.4653 20.3423 88.9644 21.0958 89.2579 21.9362C89.5479 22.7712 89.6199 23.6622 89.4679 24.5312V24.5612H89.4689ZM93.3709 22.2962C93.1679 22.6592 91.8099 22.3492 90.8419 21.8512C90.7772 21.6238 90.7018 21.3996 90.6159 21.1792C92.3329 21.3522 93.2299 21.8132 93.4019 22.1072C93.4409 22.1372 93.4569 22.1752 93.3859 22.2972H93.3709V22.2962Z" fill="#323232"/>
<path d="M201.5 48C214.479 48 225 37.4787 225 24.5C225 11.5213 214.479 1 201.5 1C188.521 1 178 11.5213 178 24.5C178 37.4787 188.521 48 201.5 48Z" stroke="#323232" stroke-width="2"/>
<path d="M204.6 15.1C204.6 14.1 204.2 13 203.4 12.2C202.652 11.4671 201.647 11.0566 200.6 11.0566C199.553 11.0566 198.548 11.4671 197.8 12.2C197 13 196.6 14 196.6 15.2V27.2C195.6 28.2 195 29.6 195 31.2C195.012 32.14 195.244 33.0641 195.678 33.8979C196.112 34.7316 196.736 35.4517 197.5 36C198.68 36.8087 200.125 37.135 201.539 36.9119C202.952 36.6887 204.226 35.9331 205.1 34.8C205.99 33.6468 206.43 32.2094 206.338 30.7558C206.246 29.3023 205.628 27.9318 204.6 26.9V15.1ZM204.7 31.1C204.705 31.8103 204.535 32.5109 204.203 33.1391C203.871 33.7673 203.389 34.3036 202.8 34.7C201.922 35.2746 200.854 35.4813 199.825 35.2755C198.796 35.0697 197.889 34.468 197.3 33.6C196.717 32.7074 196.486 31.6299 196.652 30.5766C196.818 29.5233 197.37 28.5694 198.2 27.9V15C198.2 14.4 198.4 13.7 198.9 13.3C199.123 13.0762 199.388 12.8987 199.68 12.7776C199.971 12.6565 200.284 12.5941 200.6 12.5941C200.916 12.5941 201.229 12.6565 201.52 12.7776C201.812 12.8987 202.077 13.0762 202.3 13.3C202.7 13.7 203 14.3 203 15V27.6C203.537 27.9874 203.972 28.499 204.268 29.0911C204.564 29.6832 204.712 30.3381 204.7 31V31.1Z" fill="#323232"/>
<path d="M201.5 28.6V15.2L201.2 14.6C201.051 14.4593 200.855 14.3809 200.65 14.3809C200.445 14.3809 200.249 14.4593 200.1 14.6L199.9 15.2V28.6C199.3 28.8 198.9 29.2 198.6 29.6C198.29 30.106 198.17 30.7057 198.262 31.2919C198.353 31.8782 198.65 32.4127 199.1 32.8C199.524 33.1865 200.077 33.4007 200.65 33.4007C201.223 33.4007 201.776 33.1865 202.2 32.8C202.6 32.4 202.9 31.8 203 31.3C203.1 30.7 203 30.2 202.7 29.7C202.4 29.2 202 28.7 201.5 28.6ZM211 14.2H206.2V15.8H211V14.2ZM211 17.5H206.2V19H211V17.4V17.5ZM211 20.8H206.2V22.4H211V20.8ZM211 24H206.2V25.7H211V24Z" fill="#323232"/>
<path d="M24.5 48C37.4787 48 48 37.4787 48 24.5C48 11.5213 37.4787 1 24.5 1C11.5213 1 1 11.5213 1 24.5C1 37.4787 11.5213 48 24.5 48Z" stroke="#323232" stroke-width="2"/>
<path d="M24 8C22.0418 8.00112 20.1521 8.72039 18.6887 10.0216C17.2254 11.3227 16.2901 13.1154 16.06 15.06H16V30.95H32V15.05H31.94C31.7077 13.1072 30.7714 11.3169 29.3082 10.0178C27.8451 8.7187 25.9566 8.00083 24 8ZM30.12 29.06H17.88V20.4C18.0546 20.6105 18.278 20.7751 18.5306 20.8797C18.7833 20.9843 19.0577 21.0256 19.33 21C20.55 21 21.33 20.32 21.33 19.46V18.65C21.33 18.4352 21.4153 18.2291 21.5672 18.0772C21.7191 17.9253 21.9252 17.84 22.14 17.84C22.3548 17.84 22.5609 17.9253 22.7128 18.0772C22.8647 18.2291 22.95 18.4352 22.95 18.65V21.75C22.9547 21.9986 23.0121 22.2433 23.1182 22.4681C23.2244 22.6929 23.377 22.8926 23.5659 23.0542C23.7549 23.2157 23.9759 23.3354 24.2145 23.4054C24.4531 23.4753 24.7037 23.4939 24.95 23.46C25.1901 23.4936 25.4346 23.4769 25.6679 23.4111C25.9012 23.3452 26.1183 23.2316 26.3054 23.0774C26.4925 22.9232 26.6456 22.7318 26.7548 22.5153C26.864 22.2989 26.9271 22.0621 26.94 21.82V19.74C26.9244 19.5644 26.9455 19.3875 27.0019 19.2205C27.0584 19.0536 27.149 18.9002 27.268 18.7701C27.387 18.6401 27.5318 18.5362 27.6931 18.4652C27.8544 18.3941 28.0287 18.3574 28.205 18.3574C28.3813 18.3574 28.5556 18.3941 28.7169 18.4652C28.8782 18.5362 29.023 18.6401 29.142 18.7701C29.261 18.9002 29.3516 19.0536 29.4081 19.2205C29.4645 19.3875 29.4856 19.5644 29.47 19.74V19.82C29.493 20.0027 29.5632 20.1762 29.6737 20.3235C29.7842 20.4708 29.9311 20.5868 30.1 20.66V29.13L30.12 29.07V29.06ZM22.59 38.59C22.59 38.964 22.7386 39.3226 23.003 39.587C23.2674 39.8514 23.626 40 24 40C24.374 40 24.7326 39.8514 24.997 39.587C25.2614 39.3226 25.41 38.964 25.41 38.59V31.89H22.6V38.59H22.59Z" fill="#323232"/>
</svg>
